<?xml version="1.0" encoding="iso-8859-1"?>
<!-- Generator: Adobe Illustrator 26.5.1, SVG Export Plug-In . SVG Version: 6.00 Build 0)  -->
<svg version="1.1" id="Capa_1" xmlns="http://www.w3.org/2000/svg" xmlns:xlink="http://www.w3.org/1999/xlink" x="0px" y="0px"
	 viewBox="0 0 511.977 511.977" style="enable-background:new 0 0 511.977 511.977;" xml:space="preserve">
<g>
	<g>
		
			<rect x="98.483" y="61.85" transform="matrix(0.7071 -0.7071 0.7071 0.7071 -67.8848 118.8178)" style="fill:#33CCCC;" width="22" height="159.005"/>
		
			<rect x="359.474" y="322.841" transform="matrix(0.7071 -0.7071 0.7071 0.7071 -175.9906 379.8085)" style="fill:#33CCCC;" width="22" height="159.005"/>
		<path style="fill:#33CCCC;" d="M343.391,215.594h50.98c6.075,0,11-4.925,11-11s-4.925-11-11-11h-14.49v-64.457
			c0-6.075-4.925-11-11-11h-15.375c-6.075,0-11,4.925-11,11s4.925,11,11,11h4.375v53.457h-14.49c-6.075,0-11,4.925-11,11
			S337.316,215.594,343.391,215.594z"/>
		<path style="fill:#33CCCC;" d="M358.725,85.8c2.129,5.494,8.968,8.332,14.36,5.95c5.495-2.13,8.338-8.97,5.95-14.36
			c-1.088-2.681-3.272-4.862-5.95-5.95c-5.388-2.388-12.233,0.453-14.36,5.95C357.601,80.047,357.607,83.144,358.725,85.8z"/>
	</g>
	<g>
		<path d="M377.642,323.843c-7.567-7.566-17.627-11.734-28.329-11.734c-10.701,0-20.761,4.167-28.328,11.734l-37.173,37.173
			l-133.001-133l37.173-37.173c15.62-15.62,15.62-41.036,0-56.656l-71.333-71.333c-15.62-15.62-41.036-15.619-56.657,0L31.647,91.2
			C4.338,118.509-6.355,158.771,3.741,196.274c20.021,74.366,59.538,142.619,114.288,197.392c0.023,0.023,0.046,0.046,0.066,0.067
			c0.019,0.019,0.04,0.04,0.061,0.06c55.104,55.082,123.809,94.724,198.688,114.639c8.962,2.384,18.1,3.545,27.189,3.545
			c28.235,0,56.003-11.206,76.587-31.79l28.354-28.354c7.567-7.566,11.734-17.627,11.734-28.328s-4.167-20.762-11.734-28.328
			L377.642,323.843z M433.419,436.276l-28.354,28.354c-21.682,21.683-53.322,30.319-82.565,22.541
			c-71.157-18.926-136.452-56.608-188.825-108.974c-0.006-0.006-0.012-0.012-0.019-0.018c-0.008-0.008-0.017-0.017-0.025-0.025
			C81.579,326.095,44.01,261.225,24.985,190.555c-8.057-29.927,0.457-62.038,22.219-83.799l28.347-28.347
			c7.042-7.043,18.502-7.043,25.543,0l71.333,71.333c7.042,7.042,7.042,18.501,0,25.543l-44.951,44.951
			c-4.295,4.296-4.295,11.261,0,15.557l148.557,148.557c4.296,4.296,11.261,4.296,15.557,0l44.951-44.951
			c3.412-3.412,7.947-5.291,12.771-5.291c4.825,0,9.36,1.879,12.772,5.291l71.334,71.333c3.411,3.411,5.29,7.947,5.29,12.771
			S436.831,432.865,433.419,436.276z"/>
		<path d="M368.881,0c-78.902,0-143.094,64.191-143.094,143.094c0,28.844,8.466,56.435,24.539,80.138l-9.131,34.077
			c-1.018,3.796,0.068,7.847,2.847,10.625c2.78,2.779,6.829,3.865,10.625,2.847l34.077-9.131
			c23.703,16.072,51.294,24.539,80.138,24.539c78.902,0,143.094-64.192,143.094-143.094S447.784,0,368.881,0z M368.881,264.188
			c-25.927,0-50.653-8.081-71.507-23.368c-1.906-1.397-4.189-2.128-6.504-2.128c-0.952,0-1.908,0.124-2.847,0.375l-20.647,5.532
			l5.532-20.647c0.863-3.222,0.218-6.661-1.753-9.351c-15.288-20.854-23.368-45.581-23.368-71.507
			C247.787,76.322,302.11,22,368.881,22s121.094,54.322,121.094,121.094S435.653,264.188,368.881,264.188z"/>
	</g>
</g>
<g>
</g>
<g>
</g>
<g>
</g>
<g>
</g>
<g>
</g>
<g>
</g>
<g>
</g>
<g>
</g>
<g>
</g>
<g>
</g>
<g>
</g>
<g>
</g>
<g>
</g>
<g>
</g>
<g>
</g>
</svg>
