<?xml version="1.0" encoding="iso-8859-1"?>
<!-- Generator: Adobe Illustrator 29.5.1, SVG Export Plug-In . SVG Version: 9.03 Build 0)  -->
<svg version="1.1" id="Layer_1" xmlns="http://www.w3.org/2000/svg" xmlns:xlink="http://www.w3.org/1999/xlink" x="0px" y="0px"
	 viewBox="0 0 512 512" style="enable-background:new 0 0 512 512;" xml:space="preserve">
<g>
	<g>
		<path style="fill:#33CCCC;" d="M256,0c-60.042,0-108.889,48.848-108.889,108.889v14.307h22v-14.307
			C169.111,60.979,208.089,22,256,22s86.889,38.979,86.889,86.889v14.307h22v-14.307C364.889,48.848,316.042,0,256,0z"/>
		<path style="fill:#33CCCC;" d="M323.023,147.787c-5.776-1.88-11.984,1.28-13.863,7.058c-4.668,14.353-17.957,23.996-33.065,23.996
			h-16.153c-6.075,0-11,4.925-11,11s4.925,11,11,11h16.153c24.666,0,46.362-15.75,53.986-39.191
			C331.96,155.873,328.8,149.666,323.023,147.787z"/>
	</g>
	<path d="M481,140.669H374.794c-1.291-15.915-14.647-28.473-30.888-28.473h-13.362C327.159,74.032,295.029,44.003,256,44.003
		s-71.159,30.029-74.544,68.193h-13.362c-16.242,0-29.597,12.558-30.888,28.473H31c-17.093,0-31,13.907-31,31V421.25
		c0,17.093,13.907,31,31,31h164.701L180.556,490h-56.918c-6.075,0-11,4.925-11,11s4.925,11,11,11h264.725c6.075,0,11-4.925,11-11
		s-4.925-11-11-11h-56.918l-15.145-37.75H481c17.093,0,31-13.907,31-31V171.669C512,154.576,498.093,140.669,481,140.669z
		 M490,171.669v207.338h-95.616v-36.112c0-53.968-41.392-98.451-94.097-103.367v-6.617c13.034-9.598,22.846-23.313,27.523-39.211
		h16.094c17.093,0,31-13.907,31-31v-0.03H481C485.962,162.669,490,166.706,490,171.669z M336.973,331.895c-6.075,0-11,4.925-11,11
		v36.112H186.027v-36.112c0-6.075-4.925-11-11-11s-11,4.925-11,11v36.112h-24.412v-36.112c0-43.86,34.693-79.76,78.077-81.723
		l29.912,35.329c2.09,2.468,5.161,3.892,8.395,3.892s6.305-1.424,8.395-3.892l29.912-35.329
		c43.384,1.963,78.077,37.863,78.077,81.723v36.112h-24.412v-36.112C347.973,336.82,343.048,331.895,336.973,331.895z
		 M190.052,243.493c-3.832-3.831-5.941-8.925-5.941-14.343s2.11-10.511,5.941-14.343c0.854-0.854,1.658-1.744,2.43-2.656
		c5.046,8.077,11.583,15.127,19.231,20.759v6.617c-7.359,0.686-14.497,2.146-21.333,4.293L190.052,243.493z M218.653,134.196
		c13.598,0,26.546-4.224,37.347-12.052c10.801,7.828,23.75,12.052,37.347,12.052h15.509v38.414
		c0,29.145-23.711,52.856-52.856,52.856s-52.856-23.711-52.856-52.856v-38.414H218.653z M233.712,244.077
		c7.043,2.201,14.529,3.389,22.288,3.389s15.245-1.188,22.288-3.389v1.969L256,272.37l-22.288-26.324V244.077z M352.905,143.196
		v19.503c0,4.962-4.038,9-9,9h-13.049v-37.503h13.049C348.868,134.196,352.905,138.234,352.905,143.196z M256,66.003
		c26.887,0,49.133,20.184,52.421,46.193h-15.074c-11.169,0-21.67-4.35-29.569-12.248c-4.295-4.296-11.261-4.296-15.556,0
		c-7.899,7.898-18.4,12.248-29.569,12.248h-15.074C206.867,86.187,229.113,66.003,256,66.003z M159.095,143.196c0-4.962,4.038-9,9-9
		h13.049v37.503h-13.049c-4.962,0-9-4.038-9-9V143.196z M31,162.669h106.095v0.03c0,17.093,13.907,31,31,31h10.323
		c-0.979,2.03-2.282,3.912-3.922,5.552c-7.987,7.986-12.385,18.604-12.385,29.899c0,8.652,2.59,16.902,7.387,23.882
		c-30.992,17.981-51.882,51.526-51.882,89.863v36.112H22V171.669C22,166.706,26.038,162.669,31,162.669z M307.74,490H204.26
		l15.146-37.75h73.188L307.74,490z M481,430.25H31c-4.962,0-9-4.037-9-9v-20.243h468v20.243C490,426.213,485.962,430.25,481,430.25z
		"/>
</g>
<g>
</g>
<g>
</g>
<g>
</g>
<g>
</g>
<g>
</g>
<g>
</g>
<g>
</g>
<g>
</g>
<g>
</g>
<g>
</g>
<g>
</g>
<g>
</g>
<g>
</g>
<g>
</g>
<g>
</g>
</svg>
