<?xml version="1.0" encoding="UTF-8"?>
<svg id="Layer_1" xmlns="http://www.w3.org/2000/svg" version="1.1" xmlns:xlink="http://www.w3.org/1999/xlink" viewBox="0 0 48 48">
  <!-- Generator: Adobe Illustrator 29.5.0, SVG Export Plug-In . SVG Version: 2.1.0 Build 137)  -->
  <defs>
    <style>
      .st0 {
        fill: #fff;
      }

      .st1 {
        fill: none;
      }

      .st2 {
        fill: #ff6d34;
      }

      .st3 {
        fill: #f0e3e2;
      }

      .st4 {
        fill: #fa2329;
      }

      .st5 {
        fill: #c9081a;
      }

      .st6 {
        clip-path: url(#clippath);
      }
    </style>
    <clipPath id="clippath">
      <rect class="st1" width="48.07" height="48"/>
    </clipPath>
  </defs>
  <path class="st5" d="M42.84,92.08l.98.37c-1.81-.05-.33,2.43-1.88,2.38-.33-.19-.32-.17-.49-.51-.02-.68.89-1.53,1.39-2.25Z"/>
  <path class="st2" d="M-8.74,101.49c2.77,3.02,5.49,3.41,9.39,3.62,5.86.32,7.75-2.6,12.48-4.7.07.8.13,1.55.17,2.36,1.46-.31,4.42-.96,5.53-1.94l.09.27c.02.39.1,1.39-.16,1.61-.82.71-4.22,1.3-5.18,1.41-.12.03-.46.03-.6.04.05-1.41.1-1.98-.02-3.4-1.31.5-3.13,1.77-4.4,2.54-4.03,2.45-9.39,2.62-13.74,1-.02.45-.03,1.13-.09,1.56l-.25-.06c-1.8-.81-4.43-1.63-3.28-4.1l.06-.2Z"/>
  <path d="M18.91,101.09c.02.39.1,1.39-.16,1.61-.82.71-4.22,1.3-5.18,1.41l-.31-.08c-.12-.35-.11-.35-.12-.7.05-.09.09-.18.14-.26,1.24-.5,2.75-.72,4.01-1.22.83-.33.94-.35,1.62-.77Z"/>
  <g>
    <path d="M-5.19,104.29c4.35,1.62,9.7,1.45,13.74-1,1.27-.77,3.09-2.04,4.4-2.54.12,1.42.07,1.99.02,3.4-.96-.66-1.17-.93-1.85-1.86-.34.29-.93.73-1.22,1.06-3.4,3.77-10.68,4.29-15.18,2.5.05-.43.06-1.11.09-1.56Z"/>
    <path d="M-8.8,101.69c1.27,1.41,1.76,1.67,3.47,2.54l-.19,1.55c-1.8-.81-4.43-1.63-3.28-4.1Z"/>
  </g>
  <path class="st2" d="M29.33,100.44c.76.54,4.34,1.68,5.51,2.14.03-.5.04-1.72.36-2.05.75.34,1.46.8,2.16,1.22,4.53,2.7,10.04,4.63,15.25,2.76,1.49-.53,2.96-1.65,3.87-2.95.09-.13.08-.1.23-.23l.02.15c.23.34.44.64.32,1.08-.29,1.06-1.67,2.4-2.63,2.9l-.31.18v-1.65c-6.29,3.72-13.4-.05-18.89-3.31-.14,1.09-.18,1.93-.08,3.02l-.19.12c-1.41-.33-4.79-.68-5.73-1.46-.33-.58-.14-1.02.02-1.66l.1-.28Z"/>
  <path d="M29.24,100.72l.08.04c1.27.58,4.72,1.52,5.49,2.18.15.5.07.51.15.9-1.41-.33-4.79-.68-5.73-1.46-.33-.58-.14-1.02.02-1.66Z"/>
  <g>
    <path d="M35.22,100.69c5.49,3.26,12.6,7.03,18.89,3.31v1.65c-1.26.46-2.23.67-3.57.81-1.6.15-3.21.13-4.81-.04-4.21-.46-5.69-1.44-8.85-4.04-.61.69-.96.93-1.74,1.34-.1-1.09-.06-1.93.08-3.02Z"/>
    <path d="M54.38,103.85c1.11-.78,1.71-1.17,2.35-2.38.23.34.44.64.32,1.08-.29,1.06-1.67,2.4-2.63,2.9-.16-.44-.07-1.13-.04-1.61Z"/>
  </g>
  <path class="st4" d="M9.47,90.23c.78.04,2.67.27,3.18.91.15.19.15.21.37.34.38-.04.67-.28.99-.5.81.01,1.62-.05,2.43-.02,1.66.07,1.27,1.48,1.09,2.58.86,1.39.83,2.03.78,3.6-2.14,1.62-4.74,1.97-7.14,2.91-1.69.7-3.12,1.56-4.93,1.99-3.91.93-9.14,1.62-12.3-1.5-1.14-1.13-1.28-2.28-1.25-3.78.22-1.22.46-2.28,1.2-3.31,1.76-2.49,5.66-2.51,8.22-1.4.82.36,1.43.79,2.16,1.3,2.23-.88.43,1.95,2,2.19.35-.11.32-.1.54-.39.03-.16.1-.42,0-.55-.51-.64-.83-1.07-1.25-1.78.58-.26,1.14-.41,1.75-.59.3.45.77,1.04,1.08,1.47.1.13-.17.36.21.86.47.24.86.33,1.09-.23-.15-.7-1.26-1.51-1.89-2.22.73-.37.93-.53,1.48-1.1.83.91,1.11,1.55,1.78,2.54.08.03.16.05.25.08.31-.09.3-.07.51-.31.14-1.13-1.49-1.4-2.3-2.98l-.06-.11Z"/>
  <path class="st4" d="M29.91,97.3c0-3.72.59-4.89,4.05-6.1,1.38-.48,1.24-.63,2.8-.34.36.07,1.82-1.08,2.35-.33-.14,1.08-2.22,1.99-2.01,3.05.21.18.37.16.65.18.66-.26.66-1.46,1.66-2.42l.11-.1,1.6.9c-.5.56-1.79,1.96-1.59,2.73,1.11.84,1.18-1.36,1.96-2.24l.09-.1c.55.28,1.05.58,1.64.7l.95.36c1.13-.5,1.98-1.7,3.54-2,1.98-.38,3.89-.34,5.69.67,2.19,1.22,3.2,4.62,1.89,6.78-1.22,1.87-3.41,3.13-5.51,3.6-4.88,1.09-8.66-1.05-12.99-2.78-2.36-.94-4.49-1.04-6.87-2.55Z"/>
  <path class="st0" d="M40.2,90.58c.57-.03,1.98.09,2.45.41v.16s-.43.24-.43.24l-.79.44c-.57-.31-1.35-.55-1.24-1.26Z"/>
  <path class="st0" d="M7.38,90.71c.42-.05,1.07-.2,1.24.24-.2.33-.49.4-.85.57-.44.06-1.09-.15-1.24-.58.29-.25.37-.17.84-.23Z"/>
  <path class="st0" d="M5.48,91.31c.43-.1.92.27,1.33.49l-1.21.41c-.44.18-.78-.03-.91-.48.2-.35.26-.26.79-.43Z"/>
  <path class="st0" d="M3.11,91.59c.66,0,1.35.4,1.55,1.05-.67.05-1.43-.35-1.55-1.05Z"/>
  <path class="st0" d="M43.19,91.22c.4.05.83.29,1.21.46l-1.09.94c-.4-.11-1.06-.41-1.46-.58.43-.28.9-.56,1.34-.83Z"/>
  <path class="st0" d="M45.19,91.47c.13.13.07.04.12.3-.34.49-.82.8-1.31,1.17-.11-.1-.06-.03-.09-.25.34-.5.81-.83,1.27-1.22Z"/>
  <g class="st6">
    <rect class="st4" x="-.11" width="48.15" height="47.94"/>
    <g>
      <path class="st3" d="M45.42,92.7c.17.08.38.23.54.33.35.93-1.96,1.3-2.61,1.44-.28.08-.19.08-.47.05.2-.49,1.98-1.48,2.53-1.82Z"/>
      <path class="st3" d="M46.51,93.85l.2.04.08.19c-.45.83-2.45,1.15-3.35,1.25-.06-.03-.01,0-.15-.16.54-.43,1.83-.35,3.22-1.33Z"/>
      <path d="M18.38,10.23c0-.66-.05-1.45.17-2.08,1.33-3.91,6.15-5.8,9.54-3.07.89.71,1.03,1.08,1.53,2.07,2.84-3.05,7.24-.51,7.25,3.24,0,.81-.18,1.25-.44,1.99,3.35,1.08,3.78,3.59,1.65,6.21.1.09.2.19.3.28,2.45,2.38.93,4.16-.98,6.09-.02.42-.08,1.15-.17,1.56-.23,1.15-.94,2.15-1.95,2.76-1.96,1.2-4.78,1.09-6.52-.41-.73-.63-1.02-1.13-1.5-1.94l.07,1.64.13.09c1.64,1.15,1.62,2.16.44,3.69.63,2.18.99,3.64,1.4,5.88,2.94.62,5.27,1.75,8.12,2.48,2.16.55,4.72.58,6.95,1.11,1.68.4,3.82,1.09,4.74,2.7,1.86,3.25-2.46,6.01-3.85,8.55-.89,1.63-1.12,2.77-1.54,4.52-.72.07-1.53.06-2.26.07-.54,2.17-.54,3.25.58,5.13.24-.88.35-1.9,1.4-2.02,1.44.67.61,3.44-.86,3.99-1.88.7-3.69.49-5.53-.08,1.47,3.64,4.17,7.93,6.02,11.43.81,1.57,2.01,3.2,2.62,4.84,1.26,3.35,2.49,7.52,2.51,11.08-.63.67-1.17,1.07-1.9,1.63,2.9,2.18.78,2.89-1.49,3.47.55.28,1.33.77,1.94.48.76-.36.72.49.87.47,1.17-.16,2.28-.77,3.49-.86,5.79-.56,9.51,3.98,7.4,9.52.73.68.96,1,.99,2l.02.16c.25.37.49.71.35,1.19-.32,1.16-1.83,2.64-2.88,3.18l-.34.2c-1.37.51-2.43.74-3.9.89-1.75.16-3.52.14-5.27-.05-4.61-.5-6.24-1.58-9.71-4.44-.67.75-1.06,1.02-1.91,1.47l-.2.13c-1.54-.37-5.25-.74-6.29-1.6-.36-.64-.15-1.12.02-1.82l.1-.31c-.02-1.19-.14-4.23.08-5.3.4-1.96.81-3.23,1.06-5.31-1.58-.13-1.87-.06-3.26-.72-1.14-9.02-1.24-18.2-2.67-27.21-.21-1.34-.14-4.93-.71-5.84h-.17c-.62,1.15-1.1,11.87-1.26,13.87l-1.22,13.76c-.13,1.46-.24,3.65-.61,5.04-.24.88-2.69,1.02-3.57,1.27.26,1.18.03,1.59.1,2.69.03.5.67,1.75.71,2.38.12,1.91-.04,3.88.02,5.79l.1.3c.02.43.11,1.52-.17,1.77-.9.78-4.62,1.43-5.68,1.55-.13.03-.5.03-.66.04-1.05-.73-1.28-1.02-2.03-2.04-.37.31-1.02.8-1.34,1.16-3.73,4.14-11.71,4.71-16.63,2.74l-.27-.07c-1.98-.89-4.86-1.79-3.6-4.49l.07-.22c-.37-1.03.77-1.66,1.51-2.06-.64-1.98-.73-3.41,0-5.38,1.81-4.9,6.84-4.79,10.86-3.39.76-.76.86-.7,1.84-.33.42-.23.83-.46,1.25-.69-2.13-.65-3.24-1.1-1.3-3.11-.66-.59-1.48-1.15-1.88-1.96-1.95-3.94,6.51-17.9,8.68-22.11.94-1.79,1.76-3.64,2.45-5.54-7.04,2.73-8.54-3.27-6.31-3.7.81.16.91.67,1,1.39v.14s.16.07.16.07c1.2-.56.96-3.71.52-4.82l-.06-.15c-.69-.09-1.78-.1-2.51-.14-.6-4.53-2.41-5.23-4.49-8.81-1.47-2.53.58-5.39,3.28-6.1,4.06-1.06,8.43-1.45,12.37-3.17,1.06-.46,2.42-.8,3.6-.78.64-2.01,1.08-3.85,1.58-5.9-2.28-2.35-.04-2.6,1.37-3.78.22-.44.2-.95.24-1.45-2.11-.08-4.01-.66-6.2-.66-2.06,0-10.69,2.43-11.76.17-.15-2.2,5.33-2.98,6.94-3.68,1.24-.54,3.75-1.35,5.07-1.44.46-.62.83-1.37,1.2-2.06-3.77-.5-6.42-4.15-3.59-7.51,1.19-1.41,3.1-1.65,4.85-1.72Z"/>
      <path d="M18.38,9.89c0-.66-.05-1.45.17-2.08,1.33-3.91,6.15-5.8,9.54-3.07.89.71,1.03,1.08,1.53,2.07,2.84-3.05,7.24-.51,7.25,3.24,0,.81-.18,1.25-.44,1.99,3.35,1.08,3.78,3.59,1.65,6.21.1.09.2.19.3.28,2.45,2.38.93,4.16-.98,6.09-.02.42-.08,1.15-.17,1.56-.23,1.15-.94,2.15-1.95,2.76-1.96,1.2-4.78,1.09-6.52-.41-.73-.63-1.02-1.13-1.5-1.94l.07,1.64.13.09c1.64,1.15,1.62,2.16.44,3.69.63,2.18.99,3.64,1.4,5.88,2.94.62,5.27,1.75,8.12,2.48,2.16.55,4.72.58,6.95,1.11,1.68.4,3.82,1.09,4.74,2.7,1.86,3.25-2.46,6.01-3.85,8.55-.89,1.63-1.12,2.77-1.54,4.52-.72.07-1.53.06-2.26.07-.54,2.17-.54,3.25.58,5.13.24-.88.35-1.9,1.4-2.02,1.44.67.61,3.44-.86,3.99-1.88.7-3.69.49-5.53-.08,1.47,3.64,4.17,7.93,6.02,11.43.81,1.57,2.01,3.2,2.62,4.84,1.26,3.35,2.49,7.52,2.51,11.08-.63.67-1.17,1.07-1.9,1.63,2.9,2.18.78,2.89-1.49,3.47.55.28,1.33.77,1.94.48.76-.36.72.49.87.47,1.17-.16,2.28-.77,3.49-.86,5.79-.56,9.51,3.98,7.4,9.52.73.68.96,1,.99,2l.02.16c.25.37.49.71.35,1.19-.32,1.16-1.83,2.64-2.88,3.18l-.34.2c-1.37.51-2.43.74-3.9.89-1.75.16-3.52.14-5.27-.05-4.61-.5-6.24-1.58-9.71-4.44-.67.75-1.06,1.02-1.91,1.47l-.2.13c-1.54-.37-5.25-.74-6.29-1.6-.36-.64-.15-1.12.02-1.82l.1-.31c-.02-1.19-.14-4.23.08-5.3.4-1.96.81-3.23,1.06-5.31-1.58-.13-1.87-.06-3.26-.72-1.14-9.02-1.24-18.2-2.67-27.21-.21-1.34-.14-4.93-.71-5.84h-.17c-.62,1.15-1.1,11.87-1.26,13.87l-1.22,13.76c-.13,1.46-.24,3.65-.61,5.04-.24.88-2.69,1.02-3.57,1.27.26,1.18.03,1.59.1,2.69.03.5.67,1.75.71,2.38.12,1.91-.04,3.88.02,5.79l.1.3c.02.43.11,1.52-.17,1.77-.9.78-4.62,1.43-5.68,1.55-.13.03-.5.03-.66.04-1.05-.73-1.28-1.02-2.03-2.04-.37.31-1.02.8-1.34,1.16-3.73,4.14-11.71,4.71-16.63,2.74l-.27-.07c-1.98-.89-4.86-1.79-3.6-4.49l.07-.22c-.37-1.03.77-1.66,1.51-2.06-.64-1.98-.73-3.41,0-5.38,1.81-4.9,6.84-4.79,10.86-3.39.76-.76.86-.7,1.84-.33.42-.23.83-.46,1.25-.69-2.13-.65-3.24-1.1-1.3-3.11-.66-.59-1.48-1.15-1.88-1.96-1.95-3.94,6.51-17.9,8.68-22.11.94-1.79,1.76-3.64,2.45-5.54-7.04,2.73-8.54-3.27-6.31-3.7.81.16.91.67,1,1.39v.14s.16.07.16.07c1.2-.56.96-3.71.52-4.82l-.06-.15c-.69-.09-1.78-.1-2.51-.14-.6-4.53-2.41-5.23-4.49-8.81-1.47-2.53.58-5.39,3.28-6.1,4.06-1.06,8.43-1.45,12.37-3.17,1.06-.46,2.42-.8,3.6-.78.64-2.01,1.08-3.85,1.58-5.9-2.28-2.35-.04-2.6,1.37-3.78.22-.44.2-.95.24-1.45-2.11-.08-4.01-.66-6.2-.66-2.06,0-10.69,2.43-11.76.17-.15-2.2,5.33-2.98,6.94-3.68,1.24-.54,3.75-1.35,5.07-1.44.46-.62.83-1.37,1.2-2.06-3.77-.5-6.42-4.15-3.59-7.51,1.19-1.41,3.1-1.65,4.85-1.72Z"/>
      <path d="M38.19,21.95c-1.14-.49-2.34-.98-3.57-.84s-2.45,1.18-2.32,2.41c.12,1.2.24,2.4.37,3.6-.52-.07-.97.4-1.19.88-.41.88-.4,1.93.02,2.81s1.24,1.54,2.17,1.77c-.32-.37-.89-.51-1.33-.3s-.69.79-.49,1.23c.07.15.18.28.28.41.59.7,1.21,1.41,2.04,1.79.02.5-.37.9-.68,1.29s-.52.99-.18,1.35c.32.33.86.2,1.29.05l.96-.33c.54.17.95.72.96,1.29,0,.14-.02.29.01.43.07.32.37.55.69.62s.65.03.97-.02c.28-.04.57-.09.79-.27s.31-.54.12-.75c-.04-.05-.1-.08-.15-.12-.48-.36-.68-1.06-.44-1.62.58.26,1.32-.03,1.64-.58s.24-1.28-.11-1.81-.96-.85-1.59-.96c.62.07,1.19-.35,1.55-.85.58-.82.76-1.91.47-2.87-.29-.96-1.04-1.77-1.98-2.13.76-.42,1.12-1.38,1-2.23s-.66-1.62-1.33-2.17-1.47-.92-2.27-1.25c1.11-.03,1.23-1.18,2.28-.83Z"/>
      <path class="st0" d="M37.84,21.85c-.92-.48-1.9-.98-2.89-.83s-1.98,1.17-1.88,2.4c.1,1.19.2,2.39.3,3.58-.42-.07-.78.39-.96.87-.33.87-.32,1.92.01,2.79s1,1.53,1.76,1.76c-.26-.36-.72-.51-1.08-.3s-.56.78-.39,1.23c.05.15.14.28.23.4.48.69.98,1.41,1.65,1.78.02.49-.3.89-.55,1.28s-.48.78-.2,1.14c.26.33.54.17,1.01.05.27-.07.55-.14.81-.25.44.17,1.16.88,1.17,1.45,0,.14-.01.29.01.43.05.32.16.36.42.44s.32.08.59.05c.21-.02.47-.02.65-.2s.25-.54.09-.74c-.04-.05-.08-.08-.12-.12-.39-.36-.51-1.25-.31-1.81.47.26,1.07-.03,1.33-.58s.23-1.19-.13-1.6-1-.68-1.37-.95c.5.07,1.04-.35,1.34-.85.47-.81.62-1.9.38-2.85s-.84-1.76-1.6-2.11c.61-.42.91-1.37.81-2.22s-.53-1.61-1.07-2.16-1.19-.91-1.83-1.25c.9-.03.99-1.17,1.84-.82Z"/>
      <path class="st0" d="M23.95,4.31c3.14-.23,4.26,1.4,5.45,3.92.55-.62,1.01-1.32,1.8-1.64,2.02-.8,4.07.26,4.78,2.29.56,1.6.11,2.64-.57,4.09,1.78,0,3.75.97,3.38,3.07-.27,1.5-1.45,2.29-2.59,3.13h1.7c2.05,2.28.95,3.94-1.27,5.38.03.44.11,1.15.07,1.57-.27,2.57-3.07,3.71-5.36,3.33-1.44-.24-2.33-.9-3.13-2.06-1.13-2.28-.39-4.15,2.04-4.88-1.93-1.24-3.01-1.87-1.46-4.15-2.21.39-2.25.48-3.51-1.4-1.66.9-1.9,1.56-3.41-.08-1.52,1.06-1.39,1.31-3.11.3-.48.81-.63,1.06-1.24,1.77h-.11c-1.41-.19-2.73-.67-3.6-1.85-.61-.82-.87-1.86-.73-2.87.17-1.04.76-1.96,1.64-2.54,1.43-.96,2.81-.93,4.39-.59-.41-3.79,1.22-5.86,4.84-6.8Z"/>
      <path class="st4" d="M27.3,29.18c1.44.82.8,1.97.04,3,.85,4.06,1.96,8.16,2.62,12.26.41,2.52.75,4.21,1.62,6.62-2.83.73-11.24,1.3-13.94.44-.43-.19-.68-.36-1.08-.62,1.11-5.89,2.77-12.42,4.18-18.28l.94.1c.75.08,1.52.05,2.2-.32-.27-.48-2.57.06-3.22-.41-.79-.56-.82-1.23-.33-2.03.51-.23.29.32.96.3,1.73-.05,4.14.08,5.81-.11.19-.25.17-.62.19-.95Z"/>
      <path class="st0" d="M17.48,38.83c.38-.02.52,0,.82.22.78,1.33-1.14,4.47-2.04,5.5-2.53.21-4.75.78-7.19,1.38-.15.04-1.89-.27-2.17-.31l-.12.1c.25.62,3.08,1.88,3.87,2.41,2.3,1.56,3.08,2.75,4.12,5.35-.51,1.7-2.86,11.26-4.98,10.64,0-.25,1.01-2.08,1.24-2.57-1.08.76-2.7,3.88-4.04,2.83.48-.64,1.9-1.76,1.8-2.63l-.19-.08c-.37.16-.53.49-.77.84-.5.66-1.11,1.64-2.03,1.59-1.07-.06-1.73-2.1-.95-2.75l.28.08c.2.35.03.6.06,1.01.06.8,1.2.81,1.53.13.84-1.7.83-3.44.4-5.25.7.08,2.37.47,2.87-.02l.1.05-.12.1.12-.04v-.1c-1.1-.49-3.4-.59-4.63-.64-.57-1.49-1.35-2.89-2.3-4.16-.98-1.31-2.48-3.04-3.12-4.53-2.51-5.9,7.42-5.86,10.78-6.88,2.29-.69,4.41-1.46,6.66-2.25Z"/>
      <path class="st0" d="M21.74,17.83c.74.32,1.02.41,1.81.61.52-.17.93-.4,1.42-.66l1.09,1.22c.63.2.81.23,1.47.3.13,1.59.21,1.85,1.14,3.14-1.08,1.18-1.03,1.67-1.86,2.94-.08.12-.72.55-.97.8l.04.2c.2.07.41.13.61.18.29.95.27,2.12.28,3.11h-2.77c-.6,0-1.17-.04-1.77-.08.1-.82.35-1.96.01-2.67-.7-.48-4.28-.85-5.38-1.02.62-1.73.52-2.6-.29-4.22.83-1.57,1.28-2.31,2.35-3.72,1.3.55,1.63.55,2.84-.14Z"/>
      <path d="M21.45,21.17c.18-.08.39-.05.54.07.16.12.24.31.21.5-.03.19-.15.36-.34.43-.28.11-.59-.02-.7-.3-.11-.27.01-.59.29-.71Z"/>
      <path class="st4" d="M15.23,22.02c1.77-.05,1.76,2.48,1.05,3.47-1.21.81-8.39,1.41-10.17,1.59-.59,0-1.44.1-1.48-.7.55-1.04,3.17-1.83,4.29-2.16,2.18-.65,4.19-1.37,6.31-2.2Z"/>
      <g>
        <path class="st0" d="M41.53,56.96c2.08-2.88,4.27-5.78,6.44-8.59,2.36-3.06-.42-5.11-3.26-5.87-2.29-.61-4.62-.73-6.94-1.16-2.84-.66-5.41-2.01-8.4-2.5.6,3.46,1.25,2.96,2.56,5.6,2.5.35,6.03.81,8.37,1.74.38-.22,1.04-.61,1.49-.51l.06.14c-.65.72-3.04,1.43-3.98,2.01-2.28,1.4-3.84,3.49-4.97,5.89,1.31,3.17,2.24,6.7,3.88,9.72.45.82,1.48,1.03,2.33,1.26-1.12-1.17-1.6-1.71-2.11-3.28,1.6,1.31,1.61,3.2,4.03,3.15l.09-.11c-1.2-1.13-1.88-1.82-2.44-3.43.67.61.97,1.03,1.52,1.76.69.79,1.06,1.03,1.99,1.58.72-.53,1.74-1.84,1.43-2.77-.34-.23-.16-.17-.58-.17-.5.52.05,1.99-.85,1.85-2.23-.33-1.56-4.48-1.35-5.72-1.08-.05-2.42-.06-3.43-.4l-.13-.14c.66-.5,3.41-.17,4.24-.06Z"/>
        <path class="st4" d="M39.32,46.48c-2.02-.84-6.48-1.48-8.65-1.45.49,3.11,1.18,4.92,1.94,7.85.91-1.55,1.52-2.58,2.83-3.87,1.22-1.13,2.36-1.84,3.88-2.53Z"/>
        <path class="st4" d="M14.76,45.29c-1.35.17-4.28.76-5.65,1.11,1.82,1.3,3.65,2.2,4.93,4.16.5.85.71,1.37,1.01,2.31,1.04-2.39,1.67-5.04,2.06-7.62-.72,0-1.66-.02-2.35.05Z"/>
      </g>
      <path class="st0" d="M2.04,94.56c1-.13,2.65.77,3.59,1.23-1.03.02-3.07-.24-3.59-1.23Z"/>
      <path class="st0" d="M1.32,95.2c.36-.02,2.39.95,3.37,1.18-.82.04-2.34.08-3-.41-.34-.25-.29-.39-.37-.77Z"/>
      <path class="st2" d="M28.75,52.41c.48.41.31.8.63,1.42.74,1.45,1.99,2.14,3.4,2.72-1.19.3-2.67-1.14-3.27-2.06-.49-.76-.58-1.22-.76-2.08Z"/>
      <path class="st2" d="M18.58,52.91l.07.05c.15,1.54-1.99,2.83-3.24,3.27l-.1-.15c1.99-1.11,2.16-.71,3.27-3.16Z"/>
      <g>
        <path d="M33.19,11.89c1.3.24,1.6,1.32,1.06,2.43-.21.43-.45.69-.75,1.05.56,0,1.06,0,1.57.29.78.43.94,1.44.47,2.17-.2.31-.51.52-.87.59-.72.13-1.31-.3-1.85-.69-.02,1.47-.41,2.01-1.86,2.26l-.07-.04c-1.45-.95-1.22-1.81-.34-3.08-.61.01-1.04.02-1.63-.23-1.3-.57-1.38-2.48.1-2.84.85-.21,1.68.3,2.39.73.25-1.24.28-2.4,1.77-2.61Z"/>
        <path class="st0" d="M33.03,12.22c2.04.44.96,2.37-.14,3.24l-.12.03c-.37-.41-.49-.49-.97-.69.09-1,.19-2.17,1.24-2.58Z"/>
        <path class="st0" d="M29.7,14.07c.63.22,1.01.4,1.57.75-.66.62-.57.73-.49,1.63-.3.02-.62.02-.92.02-1.82-.11-2.44-2.34-.17-2.4Z"/>
        <path class="st0" d="M34.12,15.71c.1.01.2.03.31.05,1.11.23,1.3,1.58.39,2.19-.3.2-.57.09-.9,0-.77-.36-.89-.46-1.37-1.15l.05-.07-.04.1c.27-.42.3-.49.24-.99.43-.09.87-.13,1.32-.12Z"/>
        <path class="st0" d="M31.03,16.76c.52.19.68.24,1.21.27.34.9.3,1.28-.07,2.14-.18.13-.37.23-.56.34-.62.13-1.28.01-1.37-.74-.11-.86.3-1.37.79-2.01Z"/>
      </g>
      <path class="st0" d="M45.96,94.07c.15.07.34.2.49.3.31.84-1.77,1.17-2.36,1.3-.26.08-.17.07-.42.05.18-.44,1.79-1.34,2.29-1.65Z"/>
      <path class="st0" d="M46.94,95.11l.18.04.08.18c-.41.75-2.22,1.04-3.04,1.13-.05-.03-.01,0-.14-.14.49-.39,1.66-.31,2.92-1.21Z"/>
    </g>
  </g>
</svg>